<svg width="63" height="63" viewBox="0 0 63 63" fill="none" xmlns="http://www.w3.org/2000/svg">
<path fill-rule="evenodd" clip-rule="evenodd" d="M31.5 63C48.897 63 63 48.897 63 31.5C63 14.103 48.897 0 31.5 0C14.103 0 0 14.103 0 31.5C0 48.897 14.103 63 31.5 63ZM62 31.5C62 48.3447 48.3447 62 31.5 62C14.6553 62 1 48.3447 1 31.5C1 14.6553 14.6553 1 31.5 1C48.3447 1 62 14.6553 62 31.5Z" fill="white"/>
<path d="M14.5173 36.0662C12.032 36.071 10.0135 34.0602 10.0087 31.5749V31.5749C10.0039 29.0896 12.0148 27.071 14.5 27.0663L50.3661 26.9974C52.8513 26.9926 54.8699 29.0034 54.8747 31.4887V31.4887C54.8795 33.974 52.8686 35.9926 50.3833 35.9973L14.5173 36.0662Z" fill="#E31837"/>
<path d="M26.6908 17.5783C28.7277 16.1543 31.5332 16.6512 32.9572 18.6882V18.6882C34.3811 20.7251 33.8842 23.5306 31.8473 24.9546L17.8448 34.7434C15.8078 36.1673 13.0023 35.6704 11.5783 33.6335V33.6335C10.1544 31.5966 10.6513 28.791 12.6882 27.3671L26.6908 17.5783Z" fill="#E31837"/>
<path d="M26.6908 45.7434C28.7277 47.1673 31.5332 46.6704 32.9572 44.6335V44.6335C34.3811 42.5966 33.8842 39.791 31.8473 38.3671L17.8448 28.5783C15.8078 27.1543 13.0023 27.6512 11.5783 29.6882V29.6882C10.1544 31.7251 10.6513 34.5306 12.6882 35.9546L26.6908 45.7434Z" fill="#E31837"/>
</svg>
