<svg width="63" height="63" viewBox="0 0 63 63" fill="none" xmlns="http://www.w3.org/2000/svg">
<path fill-rule="evenodd" clip-rule="evenodd" d="M31.5 63C48.897 63 63 48.897 63 31.5C63 14.103 48.897 0 31.5 0C14.103 0 0 14.103 0 31.5C0 48.897 14.103 63 31.5 63ZM62 31.5C62 48.3447 48.3447 62 31.5 62C14.6553 62 1 48.3447 1 31.5C1 14.6553 14.6553 1 31.5 1C48.3447 1 62 14.6553 62 31.5Z" fill="white"/>
<path d="M34 19.5C34 17.0147 36.0147 15 38.5 15V15C40.9853 15 43 17.0147 43 19.5V43.5C43 45.9853 40.9853 48 38.5 48V48C36.0147 48 34 45.9853 34 43.5V19.5Z" fill="#E31837"/>
<path d="M20 19.5C20 17.0147 22.0147 15 24.5 15V15C26.9853 15 29 17.0147 29 19.5V43.5C29 45.9853 26.9853 48 24.5 48V48C22.0147 48 20 45.9853 20 43.5V19.5Z" fill="#E31837"/>
</svg>
