<svg width="63" height="63" viewBox="0 0 63 63" fill="none" xmlns="http://www.w3.org/2000/svg">
<path fill-rule="evenodd" clip-rule="evenodd" d="M31.5 63C48.897 63 63 48.897 63 31.5C63 14.103 48.897 0 31.5 0C14.103 0 0 14.103 0 31.5C0 48.897 14.103 63 31.5 63ZM62 31.5C62 48.3447 48.3447 62 31.5 62C14.6553 62 1 48.3447 1 31.5C1 14.6553 14.6553 1 31.5 1C48.3447 1 62 14.6553 62 31.5Z" fill="white"/>
<path d="M31.5 59C46.6878 59 59 46.6878 59 31.5C59 16.3122 46.6878 4 31.5 4C16.3122 4 4 16.3122 4 31.5C4 46.6878 16.3122 59 31.5 59Z" fill="#E31837"/>
</svg>
